<?xml version="1.0" encoding="utf-8" standalone="no"?>
<!DOCTYPE svg PUBLIC "-//W3C//DTD SVG 1.1//EN"
  "http://www.w3.org/Graphics/SVG/1.1/DTD/svg11.dtd">
<svg xmlns:xlink="http://www.w3.org/1999/xlink" width="859.34044pt" height="505.757234pt" viewBox="0 0 859.34044 505.757234" xmlns="http://www.w3.org/2000/svg" version="1.1">
 <metadata>
  <rdf:RDF xmlns:dc="http://purl.org/dc/elements/1.1/" xmlns:cc="http://creativecommons.org/ns#" xmlns:rdf="http://www.w3.org/1999/02/22-rdf-syntax-ns#">
   <cc:Work>
    <dc:type rdf:resource="http://purl.org/dc/dcmitype/StillImage"/>
    <dc:date>2026-08-20T07:21:28.485434</dc:date>
    <dc:format>image/svg+xml</dc:format>
    <dc:creator>
     <cc:Agent>
      <dc:title>Matplotlib v3.10.5, https://matplotlib.org/</dc:title>
     </cc:Agent>
    </dc:creator>
   </cc:Work>
  </rdf:RDF>
 </metadata>
 <defs>
  <style type="text/css">*{stroke-linejoin: round; stroke-linecap: butt}</style>
 </defs>
 <g id="figure_1">
  <g id="patch_1">
   <path d="M 0 505.757234
L 859.34044 505.757234
L 859.34044 0
L 0 0
z
" style="fill: #ffffff"/>
  </g>
  <g id="axes_1">
   <g id="patch_2">
    <path d="M 45.478125 434.9575
L 852.14044 434.9575
L 852.14044 31.3575
L 45.478125 31.3575
z
" style="fill: #ffffff"/>
   </g>
   <g id="matplotlib.axis_1">
    <g id="xtick_1">
     <g id="line2d_1">
      <path d="M 78.538056 434.9575
L 78.538056 31.3575
" clip-path="url(#p95873efa21)" style="fill: none; stroke: #d9dde5; stroke-opacity: 0.7; stroke-width: 0.7; stroke-linecap: square"/>
     </g>
     <g id="line2d_2">
      <defs>
       <path id="mf7fef18466" d="M 0 0
L 0 3.5
" style="stroke: #000000; stroke-width: 0.8"/>
      </defs>
      <g>
       <use xlink:href="#mf7fef18466" x="78.538056" y="434.9575" style="stroke: #000000; stroke-width: 0.8"/>
      </g>
     </g>
     <g id="text_1">
      <text style="font-size: 10px; font-family: 'DejaVu Sans', 'Bitstream Vera Sans', 'Computer Modern Sans Serif', 'Lucida Grande', 'Verdana', 'Geneva', 'Lucid', 'Arial', 'Helvetica', 'Avant Garde', sans-serif; text-anchor: middle" x="78.538056" y="449.555937" transform="rotate(-0 78.538056 449.555937)">88%</text>
     </g>
    </g>
    <g id="xtick_2">
     <g id="line2d_3">
      <path d="M 210.77778 434.9575
L 210.77778 31.3575
" clip-path="url(#p95873efa21)" style="fill: none; stroke: #d9dde5; stroke-opacity: 0.7; stroke-width: 0.7; stroke-linecap: square"/>
     </g>
     <g id="line2d_4">
      <g>
       <use xlink:href="#mf7fef18466" x="210.77778" y="434.9575" style="stroke: #000000; stroke-width: 0.8"/>
      </g>
     </g>
     <g id="text_2">
      <text style="font-size: 10px; font-family: 'DejaVu Sans', 'Bitstream Vera Sans', 'Computer Modern Sans Serif', 'Lucida Grande', 'Verdana', 'Geneva', 'Lucid', 'Arial', 'Helvetica', 'Avant Garde', sans-serif; text-anchor: middle" x="210.77778" y="449.555937" transform="rotate(-0 210.77778 449.555937)">90%</text>
     </g>
    </g>
    <g id="xtick_3">
     <g id="line2d_5">
      <path d="M 343.017504 434.9575
L 343.017504 31.3575
" clip-path="url(#p95873efa21)" style="fill: none; stroke: #d9dde5; stroke-opacity: 0.7; stroke-width: 0.7; stroke-linecap: square"/>
     </g>
     <g id="line2d_6">
      <g>
       <use xlink:href="#mf7fef18466" x="343.017504" y="434.9575" style="stroke: #000000; stroke-width: 0.8"/>
      </g>
     </g>
     <g id="text_3">
      <text style="font-size: 10px; font-family: 'DejaVu Sans', 'Bitstream Vera Sans', 'Computer Modern Sans Serif', 'Lucida Grande', 'Verdana', 'Geneva', 'Lucid', 'Arial', 'Helvetica', 'Avant Garde', sans-serif; text-anchor: middle" x="343.017504" y="449.555937" transform="rotate(-0 343.017504 449.555937)">92%</text>
     </g>
    </g>
    <g id="xtick_4">
     <g id="line2d_7">
      <path d="M 475.257227 434.9575
L 475.257227 31.3575
" clip-path="url(#p95873efa21)" style="fill: none; stroke: #d9dde5; stroke-opacity: 0.7; stroke-width: 0.7; stroke-linecap: square"/>
     </g>
     <g id="line2d_8">
      <g>
       <use xlink:href="#mf7fef18466" x="475.257227" y="434.9575" style="stroke: #000000; stroke-width: 0.8"/>
      </g>
     </g>
     <g id="text_4">
      <text style="font-size: 10px; font-family: 'DejaVu Sans', 'Bitstream Vera Sans', 'Computer Modern Sans Serif', 'Lucida Grande', 'Verdana', 'Geneva', 'Lucid', 'Arial', 'Helvetica', 'Avant Garde', sans-serif; text-anchor: middle" x="475.257227" y="449.555937" transform="rotate(-0 475.257227 449.555937)">94%</text>
     </g>
    </g>
    <g id="xtick_5">
     <g id="line2d_9">
      <path d="M 607.496951 434.9575
L 607.496951 31.3575
" clip-path="url(#p95873efa21)" style="fill: none; stroke: #d9dde5; stroke-opacity: 0.7; stroke-width: 0.7; stroke-linecap: square"/>
     </g>
     <g id="line2d_10">
      <g>
       <use xlink:href="#mf7fef18466" x="607.496951" y="434.9575" style="stroke: #000000; stroke-width: 0.8"/>
      </g>
     </g>
     <g id="text_5">
      <text style="font-size: 10px; font-family: 'DejaVu Sans', 'Bitstream Vera Sans', 'Computer Modern Sans Serif', 'Lucida Grande', 'Verdana', 'Geneva', 'Lucid', 'Arial', 'Helvetica', 'Avant Garde', sans-serif; text-anchor: middle" x="607.496951" y="449.555937" transform="rotate(-0 607.496951 449.555937)">96%</text>
     </g>
    </g>
    <g id="xtick_6">
     <g id="line2d_11">
      <path d="M 739.736675 434.9575
L 739.736675 31.3575
" clip-path="url(#p95873efa21)" style="fill: none; stroke: #d9dde5; stroke-opacity: 0.7; stroke-width: 0.7; stroke-linecap: square"/>
     </g>
     <g id="line2d_12">
      <g>
       <use xlink:href="#mf7fef18466" x="739.736675" y="434.9575" style="stroke: #000000; stroke-width: 0.8"/>
      </g>
     </g>
     <g id="text_6">
      <text style="font-size: 10px; font-family: 'DejaVu Sans', 'Bitstream Vera Sans', 'Computer Modern Sans Serif', 'Lucida Grande', 'Verdana', 'Geneva', 'Lucid', 'Arial', 'Helvetica', 'Avant Garde', sans-serif; text-anchor: middle" x="739.736675" y="449.555937" transform="rotate(-0 739.736675 449.555937)">98%</text>
     </g>
    </g>
    <g id="text_7">
     <text style="font-size: 10px; font-family: 'DejaVu Sans', 'Bitstream Vera Sans', 'Computer Modern Sans Serif', 'Lucida Grande', 'Verdana', 'Geneva', 'Lucid', 'Arial', 'Helvetica', 'Avant Garde', sans-serif; text-anchor: middle" x="448.809283" y="463.234062" transform="rotate(-0 448.809283 463.234062)">Recall@100</text>
    </g>
   </g>
   <g id="matplotlib.axis_2">
    <g id="ytick_1">
     <g id="line2d_13">
      <path d="M 45.478125 354.653206
L 852.14044 354.653206
" clip-path="url(#p95873efa21)" style="fill: none; stroke: #d9dde5; stroke-opacity: 0.7; stroke-width: 0.7; stroke-linecap: square"/>
     </g>
     <g id="line2d_14">
      <defs>
       <path id="m253db604a1" d="M 0 0
L -3.5 0
" style="stroke: #000000; stroke-width: 0.8"/>
      </defs>
      <g>
       <use xlink:href="#m253db604a1" x="45.478125" y="354.653206" style="stroke: #000000; stroke-width: 0.8"/>
      </g>
     </g>
     <g id="text_8">
      <!-- $\mathdefault{10^{3}}$ -->
      <g transform="translate(20.878125 358.452425)">
       <text>
        <tspan x="0" y="-0.976562" style="font-size: 10px; font-family: 'DejaVu Sans'">1</tspan>
        <tspan x="6.362305" y="-0.976562" style="font-size: 10px; font-family: 'DejaVu Sans'">0</tspan>
        <tspan x="12.820312" y="-4.804688" style="font-size: 7px; font-family: 'DejaVu Sans'">3</tspan>
       </text>
      </g>
     </g>
    </g>
    <g id="ytick_2">
     <g id="line2d_15">
      <path d="M 45.478125 152.853206
L 852.14044 152.853206
" clip-path="url(#p95873efa21)" style="fill: none; stroke: #d9dde5; stroke-opacity: 0.7; stroke-width: 0.7; stroke-linecap: square"/>
     </g>
     <g id="line2d_16">
      <g>
       <use xlink:href="#m253db604a1" x="45.478125" y="152.853206" style="stroke: #000000; stroke-width: 0.8"/>
      </g>
     </g>
     <g id="text_9">
      <!-- $\mathdefault{10^{4}}$ -->
      <g transform="translate(20.878125 156.652425)">
       <text>
        <tspan x="0" y="-0.064063" style="font-size: 10px; font-family: 'DejaVu Sans'">1</tspan>
        <tspan x="6.362305" y="-0.064063" style="font-size: 10px; font-family: 'DejaVu Sans'">0</tspan>
        <tspan x="12.820312" y="-3.892188" style="font-size: 7px; font-family: 'DejaVu Sans'">4</tspan>
       </text>
      </g>
     </g>
    </g>
    <g id="ytick_3">
     <g id="line2d_17">
      <defs>
       <path id="mbfa1fa8f33" d="M 0 0
L -2 0
" style="stroke: #000000; stroke-width: 0.6"/>
      </defs>
      <g>
       <use xlink:href="#mbfa1fa8f33" x="45.478125" y="434.9575" style="stroke: #000000; stroke-width: 0.6"/>
      </g>
     </g>
    </g>
    <g id="ytick_4">
     <g id="line2d_18">
      <g>
       <use xlink:href="#mbfa1fa8f33" x="45.478125" y="415.401059" style="stroke: #000000; stroke-width: 0.6"/>
      </g>
     </g>
    </g>
    <g id="ytick_5">
     <g id="line2d_19">
      <g>
       <use xlink:href="#mbfa1fa8f33" x="45.478125" y="399.422284" style="stroke: #000000; stroke-width: 0.6"/>
      </g>
     </g>
    </g>
    <g id="ytick_6">
     <g id="line2d_20">
      <g>
       <use xlink:href="#mbfa1fa8f33" x="45.478125" y="385.912422" style="stroke: #000000; stroke-width: 0.6"/>
      </g>
     </g>
    </g>
    <g id="ytick_7">
     <g id="line2d_21">
      <g>
       <use xlink:href="#mbfa1fa8f33" x="45.478125" y="374.209647" style="stroke: #000000; stroke-width: 0.6"/>
      </g>
     </g>
    </g>
    <g id="ytick_8">
     <g id="line2d_22">
      <g>
       <use xlink:href="#mbfa1fa8f33" x="45.478125" y="363.887068" style="stroke: #000000; stroke-width: 0.6"/>
      </g>
     </g>
    </g>
    <g id="ytick_9">
     <g id="line2d_23">
      <g>
       <use xlink:href="#mbfa1fa8f33" x="45.478125" y="293.905353" style="stroke: #000000; stroke-width: 0.6"/>
      </g>
     </g>
    </g>
    <g id="ytick_10">
     <g id="line2d_24">
      <g>
       <use xlink:href="#mbfa1fa8f33" x="45.478125" y="258.370137" style="stroke: #000000; stroke-width: 0.6"/>
      </g>
     </g>
    </g>
    <g id="ytick_11">
     <g id="line2d_25">
      <g>
       <use xlink:href="#mbfa1fa8f33" x="45.478125" y="233.1575" style="stroke: #000000; stroke-width: 0.6"/>
      </g>
     </g>
    </g>
    <g id="ytick_12">
     <g id="line2d_26">
      <g>
       <use xlink:href="#mbfa1fa8f33" x="45.478125" y="213.601059" style="stroke: #000000; stroke-width: 0.6"/>
      </g>
     </g>
    </g>
    <g id="ytick_13">
     <g id="line2d_27">
      <g>
       <use xlink:href="#mbfa1fa8f33" x="45.478125" y="197.622284" style="stroke: #000000; stroke-width: 0.6"/>
      </g>
     </g>
    </g>
    <g id="ytick_14">
     <g id="line2d_28">
      <g>
       <use xlink:href="#mbfa1fa8f33" x="45.478125" y="184.112422" style="stroke: #000000; stroke-width: 0.6"/>
      </g>
     </g>
    </g>
    <g id="ytick_15">
     <g id="line2d_29">
      <g>
       <use xlink:href="#mbfa1fa8f33" x="45.478125" y="172.409647" style="stroke: #000000; stroke-width: 0.6"/>
      </g>
     </g>
    </g>
    <g id="ytick_16">
     <g id="line2d_30">
      <g>
       <use xlink:href="#mbfa1fa8f33" x="45.478125" y="162.087068" style="stroke: #000000; stroke-width: 0.6"/>
      </g>
     </g>
    </g>
    <g id="ytick_17">
     <g id="line2d_31">
      <g>
       <use xlink:href="#mbfa1fa8f33" x="45.478125" y="92.105353" style="stroke: #000000; stroke-width: 0.6"/>
      </g>
     </g>
    </g>
    <g id="ytick_18">
     <g id="line2d_32">
      <g>
       <use xlink:href="#mbfa1fa8f33" x="45.478125" y="56.570137" style="stroke: #000000; stroke-width: 0.6"/>
      </g>
     </g>
    </g>
    <g id="ytick_19">
     <g id="line2d_33">
      <g>
       <use xlink:href="#mbfa1fa8f33" x="45.478125" y="31.3575" style="stroke: #000000; stroke-width: 0.6"/>
      </g>
     </g>
    </g>
    <g id="text_10">
     <text style="font-size: 10px; font-family: 'DejaVu Sans', 'Bitstream Vera Sans', 'Computer Modern Sans Serif', 'Lucida Grande', 'Verdana', 'Geneva', 'Lucid', 'Arial', 'Helvetica', 'Avant Garde', sans-serif; text-anchor: middle" x="14.798438" y="233.1575" transform="rotate(-90 14.798438 233.1575)">Peak QPS</text>
    </g>
   </g>
   <g id="line2d_34">
    <path d="M 464.016851 127.753039
L 599.562568 130.961654
L 665.021231 135.075103
L 729.818696 140.591693
L 764.862223 148.022387
L 801.228147 159.900973
L 818.419311 168.967467
L 826.353694 177.774335
L 831.643283 186.482382
" clip-path="url(#p95873efa21)" style="fill: none; stroke: #6d5dfc; stroke-opacity: 0.88; stroke-width: 1.5; stroke-linecap: square"/>
    <defs>
     <path id="m11a6f92853" d="M 0 1.75
C 0.464105 1.75 0.909265 1.565609 1.237437 1.237437
C 1.565609 0.909265 1.75 0.464105 1.75 0
C 1.75 -0.464105 1.565609 -0.909265 1.237437 -1.237437
C 0.909265 -1.565609 0.464105 -1.75 0 -1.75
C -0.464105 -1.75 -0.909265 -1.565609 -1.237437 -1.237437
C -1.565609 -0.909265 -1.75 -0.464105 -1.75 0
C -1.75 0.464105 -1.565609 0.909265 -1.237437 1.237437
C -0.909265 1.565609 -0.464105 1.75 0 1.75
z
" style="stroke: #6d5dfc; stroke-opacity: 0.88"/>
    </defs>
    <g clip-path="url(#p95873efa21)">
     <use xlink:href="#m11a6f92853" x="464.016851" y="127.753039" style="fill: #6d5dfc; fill-opacity: 0.88; stroke: #6d5dfc; stroke-opacity: 0.88"/>
     <use xlink:href="#m11a6f92853" x="599.562568" y="130.961654" style="fill: #6d5dfc; fill-opacity: 0.88; stroke: #6d5dfc; stroke-opacity: 0.88"/>
     <use xlink:href="#m11a6f92853" x="665.021231" y="135.075103" style="fill: #6d5dfc; fill-opacity: 0.88; stroke: #6d5dfc; stroke-opacity: 0.88"/>
     <use xlink:href="#m11a6f92853" x="729.818696" y="140.591693" style="fill: #6d5dfc; fill-opacity: 0.88; stroke: #6d5dfc; stroke-opacity: 0.88"/>
     <use xlink:href="#m11a6f92853" x="764.862223" y="148.022387" style="fill: #6d5dfc; fill-opacity: 0.88; stroke: #6d5dfc; stroke-opacity: 0.88"/>
     <use xlink:href="#m11a6f92853" x="801.228147" y="159.900973" style="fill: #6d5dfc; fill-opacity: 0.88; stroke: #6d5dfc; stroke-opacity: 0.88"/>
     <use xlink:href="#m11a6f92853" x="818.419311" y="168.967467" style="fill: #6d5dfc; fill-opacity: 0.88; stroke: #6d5dfc; stroke-opacity: 0.88"/>
     <use xlink:href="#m11a6f92853" x="826.353694" y="177.774335" style="fill: #6d5dfc; fill-opacity: 0.88; stroke: #6d5dfc; stroke-opacity: 0.88"/>
     <use xlink:href="#m11a6f92853" x="831.643283" y="186.482382" style="fill: #6d5dfc; fill-opacity: 0.88; stroke: #6d5dfc; stroke-opacity: 0.88"/>
    </g>
   </g>
   <g id="line2d_35">
    <path d="M 88.456035 264.159115
L 305.329182 279.626628
L 413.104557 292.582164
L 478.56322 302.900981
L 527.491918 312.165468
L 571.792226 320.153735
" clip-path="url(#p95873efa21)" style="fill: none; stroke: #d9a441; stroke-opacity: 0.88; stroke-width: 1.5; stroke-linecap: square"/>
    <defs>
     <path id="m209e74b93f" d="M 0 1.75
C 0.464105 1.75 0.909265 1.565609 1.237437 1.237437
C 1.565609 0.909265 1.75 0.464105 1.75 0
C 1.75 -0.464105 1.565609 -0.909265 1.237437 -1.237437
C 0.909265 -1.565609 0.464105 -1.75 0 -1.75
C -0.464105 -1.75 -0.909265 -1.565609 -1.237437 -1.237437
C -1.565609 -0.909265 -1.75 -0.464105 -1.75 0
C -1.75 0.464105 -1.565609 0.909265 -1.237437 1.237437
C -0.909265 1.565609 -0.464105 1.75 0 1.75
z
" style="stroke: #d9a441; stroke-opacity: 0.88"/>
    </defs>
    <g clip-path="url(#p95873efa21)">
     <use xlink:href="#m209e74b93f" x="88.456035" y="264.159115" style="fill: #d9a441; fill-opacity: 0.88; stroke: #d9a441; stroke-opacity: 0.88"/>
     <use xlink:href="#m209e74b93f" x="305.329182" y="279.626628" style="fill: #d9a441; fill-opacity: 0.88; stroke: #d9a441; stroke-opacity: 0.88"/>
     <use xlink:href="#m209e74b93f" x="413.104557" y="292.582164" style="fill: #d9a441; fill-opacity: 0.88; stroke: #d9a441; stroke-opacity: 0.88"/>
     <use xlink:href="#m209e74b93f" x="478.56322" y="302.900981" style="fill: #d9a441; fill-opacity: 0.88; stroke: #d9a441; stroke-opacity: 0.88"/>
     <use xlink:href="#m209e74b93f" x="527.491918" y="312.165468" style="fill: #d9a441; fill-opacity: 0.88; stroke: #d9a441; stroke-opacity: 0.88"/>
     <use xlink:href="#m209e74b93f" x="571.792226" y="320.153735" style="fill: #d9a441; fill-opacity: 0.88; stroke: #d9a441; stroke-opacity: 0.88"/>
    </g>
   </g>
   <g id="line2d_36">
    <path d="M 138.045932 149.974619
L 335.744319 156.653118
L 485.836405 166.104347
L 568.486233 175.709738
L 620.720924 183.816528
L 680.228799 197.165227
L 718.578319 209.188499
" clip-path="url(#p95873efa21)" style="fill: none; stroke: #23a6a6; stroke-opacity: 0.88; stroke-width: 1.5; stroke-linecap: square"/>
    <defs>
     <path id="m295fb4fa43" d="M 0 1.75
C 0.464105 1.75 0.909265 1.565609 1.237437 1.237437
C 1.565609 0.909265 1.75 0.464105 1.75 0
C 1.75 -0.464105 1.565609 -0.909265 1.237437 -1.237437
C 0.909265 -1.565609 0.464105 -1.75 0 -1.75
C -0.464105 -1.75 -0.909265 -1.565609 -1.237437 -1.237437
C -1.565609 -0.909265 -1.75 -0.464105 -1.75 0
C -1.75 0.464105 -1.565609 0.909265 -1.237437 1.237437
C -0.909265 1.565609 -0.464105 1.75 0 1.75
z
" style="stroke: #23a6a6; stroke-opacity: 0.88"/>
    </defs>
    <g clip-path="url(#p95873efa21)">
     <use xlink:href="#m295fb4fa43" x="138.045932" y="149.974619" style="fill: #23a6a6; fill-opacity: 0.88; stroke: #23a6a6; stroke-opacity: 0.88"/>
     <use xlink:href="#m295fb4fa43" x="335.744319" y="156.653118" style="fill: #23a6a6; fill-opacity: 0.88; stroke: #23a6a6; stroke-opacity: 0.88"/>
     <use xlink:href="#m295fb4fa43" x="485.836405" y="166.104347" style="fill: #23a6a6; fill-opacity: 0.88; stroke: #23a6a6; stroke-opacity: 0.88"/>
     <use xlink:href="#m295fb4fa43" x="568.486233" y="175.709738" style="fill: #23a6a6; fill-opacity: 0.88; stroke: #23a6a6; stroke-opacity: 0.88"/>
     <use xlink:href="#m295fb4fa43" x="620.720924" y="183.816528" style="fill: #23a6a6; fill-opacity: 0.88; stroke: #23a6a6; stroke-opacity: 0.88"/>
     <use xlink:href="#m295fb4fa43" x="680.228799" y="197.165227" style="fill: #23a6a6; fill-opacity: 0.88; stroke: #23a6a6; stroke-opacity: 0.88"/>
     <use xlink:href="#m295fb4fa43" x="718.578319" y="209.188499" style="fill: #23a6a6; fill-opacity: 0.88; stroke: #23a6a6; stroke-opacity: 0.88"/>
    </g>
   </g>
   <g id="line2d_37">
    <path d="M 337.727915 198.017522
L 431.618119 206.587537
L 527.491918 217.701883
L 613.447739 233.0174
L 661.715238 246.330892
L 696.097566 257.191399
L 733.785887 276.23628
L 752.299449 290.273389
" clip-path="url(#p95873efa21)" style="fill: none; stroke: #65b8b0; stroke-opacity: 0.88; stroke-width: 1.5; stroke-linecap: square"/>
    <defs>
     <path id="m55f256d3cb" d="M 0 1.75
C 0.464105 1.75 0.909265 1.565609 1.237437 1.237437
C 1.565609 0.909265 1.75 0.464105 1.75 0
C 1.75 -0.464105 1.565609 -0.909265 1.237437 -1.237437
C 0.909265 -1.565609 0.464105 -1.75 0 -1.75
C -0.464105 -1.75 -0.909265 -1.565609 -1.237437 -1.237437
C -1.565609 -0.909265 -1.75 -0.464105 -1.75 0
C -1.75 0.464105 -1.565609 0.909265 -1.237437 1.237437
C -0.909265 1.565609 -0.464105 1.75 0 1.75
z
" style="stroke: #65b8b0; stroke-opacity: 0.88"/>
    </defs>
    <g clip-path="url(#p95873efa21)">
     <use xlink:href="#m55f256d3cb" x="337.727915" y="198.017522" style="fill: #65b8b0; fill-opacity: 0.88; stroke: #65b8b0; stroke-opacity: 0.88"/>
     <use xlink:href="#m55f256d3cb" x="431.618119" y="206.587537" style="fill: #65b8b0; fill-opacity: 0.88; stroke: #65b8b0; stroke-opacity: 0.88"/>
     <use xlink:href="#m55f256d3cb" x="527.491918" y="217.701883" style="fill: #65b8b0; fill-opacity: 0.88; stroke: #65b8b0; stroke-opacity: 0.88"/>
     <use xlink:href="#m55f256d3cb" x="613.447739" y="233.0174" style="fill: #65b8b0; fill-opacity: 0.88; stroke: #65b8b0; stroke-opacity: 0.88"/>
     <use xlink:href="#m55f256d3cb" x="661.715238" y="246.330892" style="fill: #65b8b0; fill-opacity: 0.88; stroke: #65b8b0; stroke-opacity: 0.88"/>
     <use xlink:href="#m55f256d3cb" x="696.097566" y="257.191399" style="fill: #65b8b0; fill-opacity: 0.88; stroke: #65b8b0; stroke-opacity: 0.88"/>
     <use xlink:href="#m55f256d3cb" x="733.785887" y="276.23628" style="fill: #65b8b0; fill-opacity: 0.88; stroke: #65b8b0; stroke-opacity: 0.88"/>
     <use xlink:href="#m55f256d3cb" x="752.299449" y="290.273389" style="fill: #65b8b0; fill-opacity: 0.88; stroke: #65b8b0; stroke-opacity: 0.88"/>
    </g>
   </g>
   <g id="line2d_38">
    <path d="M 303.345586 359.090187
L 497.73798 371.70184
L 596.256575 380.571967
L 658.409245 388.043078
L 698.742361 396.584362
L 745.687463 409.077801
L 771.474209 419.897524
" clip-path="url(#p95873efa21)" style="fill: none; stroke: #b39b92; stroke-opacity: 0.88; stroke-width: 1.5; stroke-linecap: square"/>
    <defs>
     <path id="ma915504a58" d="M 0 1.75
C 0.464105 1.75 0.909265 1.565609 1.237437 1.237437
C 1.565609 0.909265 1.75 0.464105 1.75 0
C 1.75 -0.464105 1.565609 -0.909265 1.237437 -1.237437
C 0.909265 -1.565609 0.464105 -1.75 0 -1.75
C -0.464105 -1.75 -0.909265 -1.565609 -1.237437 -1.237437
C -1.565609 -0.909265 -1.75 -0.464105 -1.75 0
C -1.75 0.464105 -1.565609 0.909265 -1.237437 1.237437
C -0.909265 1.565609 -0.464105 1.75 0 1.75
z
" style="stroke: #b39b92; stroke-opacity: 0.88"/>
    </defs>
    <g clip-path="url(#p95873efa21)">
     <use xlink:href="#ma915504a58" x="303.345586" y="359.090187" style="fill: #b39b92; fill-opacity: 0.88; stroke: #b39b92; stroke-opacity: 0.88"/>
     <use xlink:href="#ma915504a58" x="497.73798" y="371.70184" style="fill: #b39b92; fill-opacity: 0.88; stroke: #b39b92; stroke-opacity: 0.88"/>
     <use xlink:href="#ma915504a58" x="596.256575" y="380.571967" style="fill: #b39b92; fill-opacity: 0.88; stroke: #b39b92; stroke-opacity: 0.88"/>
     <use xlink:href="#ma915504a58" x="658.409245" y="388.043078" style="fill: #b39b92; fill-opacity: 0.88; stroke: #b39b92; stroke-opacity: 0.88"/>
     <use xlink:href="#ma915504a58" x="698.742361" y="396.584362" style="fill: #b39b92; fill-opacity: 0.88; stroke: #b39b92; stroke-opacity: 0.88"/>
     <use xlink:href="#ma915504a58" x="745.687463" y="409.077801" style="fill: #b39b92; fill-opacity: 0.88; stroke: #b39b92; stroke-opacity: 0.88"/>
     <use xlink:href="#ma915504a58" x="771.474209" y="419.897524" style="fill: #b39b92; fill-opacity: 0.88; stroke: #b39b92; stroke-opacity: 0.88"/>
    </g>
   </g>
   <g id="line2d_39">
    <path d="M 254.416889 256.77759
L 387.97901 257.97827
L 525.508322 264.362767
L 659.731642 271.236426
L 715.933525 281.991885
" clip-path="url(#p95873efa21)" style="fill: none; stroke: #8d6e63; stroke-opacity: 0.88; stroke-width: 1.5; stroke-linecap: square"/>
    <defs>
     <path id="me6dd7ef7af" d="M 0 1.75
C 0.464105 1.75 0.909265 1.565609 1.237437 1.237437
C 1.565609 0.909265 1.75 0.464105 1.75 0
C 1.75 -0.464105 1.565609 -0.909265 1.237437 -1.237437
C 0.909265 -1.565609 0.464105 -1.75 0 -1.75
C -0.464105 -1.75 -0.909265 -1.565609 -1.237437 -1.237437
C -1.565609 -0.909265 -1.75 -0.464105 -1.75 0
C -1.75 0.464105 -1.565609 0.909265 -1.237437 1.237437
C -0.909265 1.565609 -0.464105 1.75 0 1.75
z
" style="stroke: #8d6e63; stroke-opacity: 0.88"/>
    </defs>
    <g clip-path="url(#p95873efa21)">
     <use xlink:href="#me6dd7ef7af" x="254.416889" y="256.77759" style="fill: #8d6e63; fill-opacity: 0.88; stroke: #8d6e63; stroke-opacity: 0.88"/>
     <use xlink:href="#me6dd7ef7af" x="387.97901" y="257.97827" style="fill: #8d6e63; fill-opacity: 0.88; stroke: #8d6e63; stroke-opacity: 0.88"/>
     <use xlink:href="#me6dd7ef7af" x="525.508322" y="264.362767" style="fill: #8d6e63; fill-opacity: 0.88; stroke: #8d6e63; stroke-opacity: 0.88"/>
     <use xlink:href="#me6dd7ef7af" x="659.731642" y="271.236426" style="fill: #8d6e63; fill-opacity: 0.88; stroke: #8d6e63; stroke-opacity: 0.88"/>
     <use xlink:href="#me6dd7ef7af" x="715.933525" y="281.991885" style="fill: #8d6e63; fill-opacity: 0.88; stroke: #8d6e63; stroke-opacity: 0.88"/>
    </g>
   </g>
   <g id="line2d_40">
    <path d="M 384.011818 342.669335
" clip-path="url(#p95873efa21)" style="fill: none; stroke: #d46a85; stroke-opacity: 0.88; stroke-width: 1.5; stroke-linecap: square"/>
    <defs>
     <path id="m62a764c3bc" d="M 0 1.75
C 0.464105 1.75 0.909265 1.565609 1.237437 1.237437
C 1.565609 0.909265 1.75 0.464105 1.75 0
C 1.75 -0.464105 1.565609 -0.909265 1.237437 -1.237437
C 0.909265 -1.565609 0.464105 -1.75 0 -1.75
C -0.464105 -1.75 -0.909265 -1.565609 -1.237437 -1.237437
C -1.565609 -0.909265 -1.75 -0.464105 -1.75 0
C -1.75 0.464105 -1.565609 0.909265 -1.237437 1.237437
C -0.909265 1.565609 -0.464105 1.75 0 1.75
z
" style="stroke: #d46a85; stroke-opacity: 0.88"/>
    </defs>
    <g clip-path="url(#p95873efa21)">
     <use xlink:href="#m62a764c3bc" x="384.011818" y="342.669335" style="fill: #d46a85; fill-opacity: 0.88; stroke: #d46a85; stroke-opacity: 0.88"/>
    </g>
   </g>
   <g id="line2d_41">
    <path d="M 524.185925 335.629272
L 574.43702 345.399455
L 626.671711 358.645395
L 680.228799 376.03382
L 762.878627 420.664646
" clip-path="url(#p95873efa21)" style="fill: none; stroke: #4d91d2; stroke-opacity: 0.88; stroke-width: 1.5; stroke-linecap: square"/>
    <defs>
     <path id="m7f39f8cebe" d="M 0 1.75
C 0.464105 1.75 0.909265 1.565609 1.237437 1.237437
C 1.565609 0.909265 1.75 0.464105 1.75 0
C 1.75 -0.464105 1.565609 -0.909265 1.237437 -1.237437
C 0.909265 -1.565609 0.464105 -1.75 0 -1.75
C -0.464105 -1.75 -0.909265 -1.565609 -1.237437 -1.237437
C -1.565609 -0.909265 -1.75 -0.464105 -1.75 0
C -1.75 0.464105 -1.565609 0.909265 -1.237437 1.237437
C -0.909265 1.565609 -0.464105 1.75 0 1.75
z
" style="stroke: #4d91d2; stroke-opacity: 0.88"/>
    </defs>
    <g clip-path="url(#p95873efa21)">
     <use xlink:href="#m7f39f8cebe" x="524.185925" y="335.629272" style="fill: #4d91d2; fill-opacity: 0.88; stroke: #4d91d2; stroke-opacity: 0.88"/>
     <use xlink:href="#m7f39f8cebe" x="574.43702" y="345.399455" style="fill: #4d91d2; fill-opacity: 0.88; stroke: #4d91d2; stroke-opacity: 0.88"/>
     <use xlink:href="#m7f39f8cebe" x="626.671711" y="358.645395" style="fill: #4d91d2; fill-opacity: 0.88; stroke: #4d91d2; stroke-opacity: 0.88"/>
     <use xlink:href="#m7f39f8cebe" x="680.228799" y="376.03382" style="fill: #4d91d2; fill-opacity: 0.88; stroke: #4d91d2; stroke-opacity: 0.88"/>
     <use xlink:href="#m7f39f8cebe" x="762.878627" y="420.664646" style="fill: #4d91d2; fill-opacity: 0.88; stroke: #4d91d2; stroke-opacity: 0.88"/>
    </g>
   </g>
   <g id="line2d_42">
    <path d="M 206.149389 374.393007
" clip-path="url(#p95873efa21)" style="fill: none; stroke: #888888; stroke-opacity: 0.88; stroke-width: 1.5; stroke-linecap: square"/>
    <defs>
     <path id="mde428b25e0" d="M 0 1.75
C 0.464105 1.75 0.909265 1.565609 1.237437 1.237437
C 1.565609 0.909265 1.75 0.464105 1.75 0
C 1.75 -0.464105 1.565609 -0.909265 1.237437 -1.237437
C 0.909265 -1.565609 0.464105 -1.75 0 -1.75
C -0.464105 -1.75 -0.909265 -1.565609 -1.237437 -1.237437
C -1.565609 -0.909265 -1.75 -0.464105 -1.75 0
C -1.75 0.464105 -1.565609 0.909265 -1.237437 1.237437
C -0.909265 1.565609 -0.464105 1.75 0 1.75
z
" style="stroke: #888888; stroke-opacity: 0.88"/>
    </defs>
    <g clip-path="url(#p95873efa21)">
     <use xlink:href="#mde428b25e0" x="206.149389" y="374.393007" style="fill: #888888; fill-opacity: 0.88; stroke: #888888; stroke-opacity: 0.88"/>
    </g>
   </g>
   <g id="patch_3">
    <path d="M 45.478125 434.9575
L 45.478125 31.3575
" style="fill: none; stroke: #000000; stroke-width: 0.8; stroke-linejoin: miter; stroke-linecap: square"/>
   </g>
   <g id="patch_4">
    <path d="M 45.478125 434.9575
L 852.14044 434.9575
" style="fill: none; stroke: #000000; stroke-width: 0.8; stroke-linejoin: miter; stroke-linecap: square"/>
   </g>
   <g id="text_11">
    <text style="font-weight: 700; font-size: 16px; font-family: 'DejaVu Sans', 'Bitstream Vera Sans', 'Computer Modern Sans Serif', 'Lucida Grande', 'Verdana', 'Geneva', 'Lucid', 'Arial', 'Helvetica', 'Avant Garde', sans-serif; text-anchor: start" x="45.478125" y="19.3575" transform="rotate(-0 45.478125 19.3575)">Cohere Medium 1M: QPS (log scale) vs. recall</text>
   </g>
   <g id="legend_1">
    <g id="patch_5">
     <path d="M 522.205065 123.277406
L 846.33044 123.277406
Q 847.99044 123.277406 847.99044 121.617406
L 847.99044 37.1675
Q 847.99044 35.5075 846.33044 35.5075
L 522.205065 35.5075
Q 520.545065 35.5075 520.545065 37.1675
L 520.545065 121.617406
Q 520.545065 123.277406 522.205065 123.277406
z
" style="fill: #ffffff; opacity: 0.94; stroke: #cccccc; stroke-linejoin: miter"/>
    </g>
    <g id="line2d_43">
     <path d="M 523.865065 42.229203
L 532.165065 42.229203
L 540.465065 42.229203
" style="fill: none; stroke: #6d5dfc; stroke-opacity: 0.88; stroke-width: 1.5; stroke-linecap: square"/>
     <g>
      <use xlink:href="#m11a6f92853" x="532.165065" y="42.229203" style="fill: #6d5dfc; fill-opacity: 0.88; stroke: #6d5dfc; stroke-opacity: 0.88"/>
     </g>
    </g>
    <g id="text_12">
     <text style="font-size: 8.3px; font-family: 'DejaVu Sans', 'Bitstream Vera Sans', 'Computer Modern Sans Serif', 'Lucida Grande', 'Verdana', 'Geneva', 'Lucid', 'Arial', 'Helvetica', 'Avant Garde', sans-serif; text-anchor: start" x="547.105065" y="45.134203" transform="rotate(-0 547.105065 45.134203)">Zilliz Cloud 8CU</text>
    </g>
    <g id="line2d_44">
     <path d="M 523.865065 54.412047
L 532.165065 54.412047
L 540.465065 54.412047
" style="fill: none; stroke: #d9a441; stroke-opacity: 0.88; stroke-width: 1.5; stroke-linecap: square"/>
     <g>
      <use xlink:href="#m209e74b93f" x="532.165065" y="54.412047" style="fill: #d9a441; fill-opacity: 0.88; stroke: #d9a441; stroke-opacity: 0.88"/>
     </g>
    </g>
    <g id="text_13">
     <text style="font-size: 8.3px; font-family: 'DejaVu Sans', 'Bitstream Vera Sans', 'Computer Modern Sans Serif', 'Lucida Grande', 'Verdana', 'Geneva', 'Lucid', 'Arial', 'Helvetica', 'Avant Garde', sans-serif; text-anchor: start" x="547.105065" y="57.317047" transform="rotate(-0 547.105065 57.317047)">Elastic Cloud</text>
    </g>
    <g id="line2d_45">
     <path d="M 523.865065 66.594891
L 532.165065 66.594891
L 540.465065 66.594891
" style="fill: none; stroke: #23a6a6; stroke-opacity: 0.88; stroke-width: 1.5; stroke-linecap: square"/>
     <g>
      <use xlink:href="#m295fb4fa43" x="532.165065" y="66.594891" style="fill: #23a6a6; fill-opacity: 0.88; stroke: #23a6a6; stroke-opacity: 0.88"/>
     </g>
    </g>
    <g id="text_14">
     <text style="font-size: 8.3px; font-family: 'DejaVu Sans', 'Bitstream Vera Sans', 'Computer Modern Sans Serif', 'Lucida Grande', 'Verdana', 'Geneva', 'Lucid', 'Arial', 'Helvetica', 'Avant Garde', sans-serif; text-anchor: start" x="547.105065" y="69.499891" transform="rotate(-0 547.105065 69.499891)">Milvus SQ4U + FP16</text>
    </g>
    <g id="line2d_46">
     <path d="M 523.865065 78.777734
L 532.165065 78.777734
L 540.465065 78.777734
" style="fill: none; stroke: #65b8b0; stroke-opacity: 0.88; stroke-width: 1.5; stroke-linecap: square"/>
     <g>
      <use xlink:href="#m55f256d3cb" x="532.165065" y="78.777734" style="fill: #65b8b0; fill-opacity: 0.88; stroke: #65b8b0; stroke-opacity: 0.88"/>
     </g>
    </g>
    <g id="text_15">
     <text style="font-size: 8.3px; font-family: 'DejaVu Sans', 'Bitstream Vera Sans', 'Computer Modern Sans Serif', 'Lucida Grande', 'Verdana', 'Geneva', 'Lucid', 'Arial', 'Helvetica', 'Avant Garde', sans-serif; text-anchor: start" x="547.105065" y="81.682734" transform="rotate(-0 547.105065 81.682734)">Milvus SQ8</text>
    </g>
    <g id="line2d_47">
     <path d="M 523.865065 90.960578
L 532.165065 90.960578
L 540.465065 90.960578
" style="fill: none; stroke: #b39b92; stroke-opacity: 0.88; stroke-width: 1.5; stroke-linecap: square"/>
     <g>
      <use xlink:href="#ma915504a58" x="532.165065" y="90.960578" style="fill: #b39b92; fill-opacity: 0.88; stroke: #b39b92; stroke-opacity: 0.88"/>
     </g>
    </g>
    <g id="text_16">
     <text style="font-size: 8.3px; font-family: 'DejaVu Sans', 'Bitstream Vera Sans', 'Computer Modern Sans Serif', 'Lucida Grande', 'Verdana', 'Geneva', 'Lucid', 'Arial', 'Helvetica', 'Avant Garde', sans-serif; text-anchor: start" x="547.105065" y="93.865578" transform="rotate(-0 547.105065 93.865578)">OpenSearch</text>
    </g>
    <g id="line2d_48">
     <path d="M 523.865065 103.143422
L 532.165065 103.143422
L 540.465065 103.143422
" style="fill: none; stroke: #8d6e63; stroke-opacity: 0.88; stroke-width: 1.5; stroke-linecap: square"/>
     <g>
      <use xlink:href="#me6dd7ef7af" x="532.165065" y="103.143422" style="fill: #8d6e63; fill-opacity: 0.88; stroke: #8d6e63; stroke-opacity: 0.88"/>
     </g>
    </g>
    <g id="text_17">
     <text style="font-size: 8.3px; font-family: 'DejaVu Sans', 'Bitstream Vera Sans', 'Computer Modern Sans Serif', 'Lucida Grande', 'Verdana', 'Geneva', 'Lucid', 'Arial', 'Helvetica', 'Avant Garde', sans-serif; text-anchor: start" x="547.105065" y="106.048422" transform="rotate(-0 547.105065 106.048422)">OpenSearch force-merge</text>
    </g>
    <g id="line2d_49">
     <path d="M 523.865065 115.326266
L 532.165065 115.326266
L 540.465065 115.326266
" style="fill: none; stroke: #d46a85; stroke-opacity: 0.88; stroke-width: 1.5; stroke-linecap: square"/>
     <g>
      <use xlink:href="#m62a764c3bc" x="532.165065" y="115.326266" style="fill: #d46a85; fill-opacity: 0.88; stroke: #d46a85; stroke-opacity: 0.88"/>
     </g>
    </g>
    <g id="text_18">
     <text style="font-size: 8.3px; font-family: 'DejaVu Sans', 'Bitstream Vera Sans', 'Computer Modern Sans Serif', 'Lucida Grande', 'Verdana', 'Geneva', 'Lucid', 'Arial', 'Helvetica', 'Avant Garde', sans-serif; text-anchor: start" x="547.105065" y="118.231266" transform="rotate(-0 547.105065 118.231266)">Pinecone</text>
    </g>
    <g id="line2d_50">
     <path d="M 667.750753 42.229203
L 676.050753 42.229203
L 684.350753 42.229203
" style="fill: none; stroke: #4d91d2; stroke-opacity: 0.88; stroke-width: 1.5; stroke-linecap: square"/>
     <g>
      <use xlink:href="#m7f39f8cebe" x="676.050753" y="42.229203" style="fill: #4d91d2; fill-opacity: 0.88; stroke: #4d91d2; stroke-opacity: 0.88"/>
     </g>
    </g>
    <g id="text_19">
     <text style="font-size: 8.3px; font-family: 'DejaVu Sans', 'Bitstream Vera Sans', 'Computer Modern Sans Serif', 'Lucida Grande', 'Verdana', 'Geneva', 'Lucid', 'Arial', 'Helvetica', 'Avant Garde', sans-serif; text-anchor: start" x="690.990753" y="45.134203" transform="rotate(-0 690.990753 45.134203)">Qdrant Cloud</text>
    </g>
    <g id="line2d_51">
     <path d="M 667.750753 54.412047
L 676.050753 54.412047
L 684.350753 54.412047
" style="fill: none; stroke: #888888; stroke-opacity: 0.88; stroke-width: 1.5; stroke-linecap: square"/>
     <g>
      <use xlink:href="#mde428b25e0" x="676.050753" y="54.412047" style="fill: #888888; fill-opacity: 0.88; stroke: #888888; stroke-opacity: 0.88"/>
     </g>
    </g>
    <g id="text_20">
     <text style="font-size: 8.3px; font-family: 'DejaVu Sans', 'Bitstream Vera Sans', 'Computer Modern Sans Serif', 'Lucida Grande', 'Verdana', 'Geneva', 'Lucid', 'Arial', 'Helvetica', 'Avant Garde', sans-serif; text-anchor: start" x="690.990753" y="57.317047" transform="rotate(-0 690.990753 57.317047)">TurboPuffer</text>
    </g>
    <g id="line2d_52">
     <path d="M 667.750753 66.594891
L 676.050753 66.594891
L 684.350753 66.594891
" style="fill: none; stroke-dasharray: 10.36,4.48; stroke-dashoffset: 0; stroke: #f07c32; stroke-width: 2.8"/>
     <defs>
      <path id="m83c2f74aef" d="M 0 -5
L -1.12257 -1.545085
L -4.755283 -1.545085
L -1.816356 0.59017
L -2.938926 4.045085
L -0 1.90983
L 2.938926 4.045085
L 1.816356 0.59017
L 4.755283 -1.545085
L 1.12257 -1.545085
z
" style="stroke: #f07c32; stroke-linejoin: bevel"/>
     </defs>
     <g>
      <use xlink:href="#m83c2f74aef" x="676.050753" y="66.594891" style="fill: #f07c32; stroke: #f07c32; stroke-linejoin: bevel"/>
     </g>
    </g>
    <g id="text_21">
     <text style="font-size: 8.3px; font-family: 'DejaVu Sans', 'Bitstream Vera Sans', 'Computer Modern Sans Serif', 'Lucida Grande', 'Verdana', 'Geneva', 'Lucid', 'Arial', 'Helvetica', 'Avant Garde', sans-serif; text-anchor: start" x="690.990753" y="69.499891" transform="rotate(-0 690.990753 69.499891)">TreeDB baseline (u8 / u8+rerank)</text>
    </g>
    <g id="PathCollection_1">
     <defs>
      <path id="meac61facf2" d="M -0 5.385165
L 5.385165 0
L 0 -5.385165
L -5.385165 -0
z
" style="stroke: #f07c32; stroke-width: 2"/>
     </defs>
     <g>
      <use xlink:href="#meac61facf2" x="676.050753" y="79.503984" style="fill: #ffffff; stroke: #f07c32; stroke-width: 2"/>
     </g>
    </g>
    <g id="text_22">
     <text style="font-size: 8.3px; font-family: 'DejaVu Sans', 'Bitstream Vera Sans', 'Computer Modern Sans Serif', 'Lucida Grande', 'Verdana', 'Geneva', 'Lucid', 'Arial', 'Helvetica', 'Avant Garde', sans-serif; text-anchor: start" x="690.990753" y="81.682734" transform="rotate(-0 690.990753 81.682734)">TreeDB baseline FP32 (single point)</text>
    </g>
    <g id="line2d_53">
     <path d="M 667.750753 90.960578
L 676.050753 90.960578
L 684.350753 90.960578
" style="fill: none; stroke: #0b63ce; stroke-width: 2.8; stroke-linecap: square"/>
     <defs>
      <path id="ma9cce7b242" d="M 0 -5
L -1.12257 -1.545085
L -4.755283 -1.545085
L -1.816356 0.59017
L -2.938926 4.045085
L -0 1.90983
L 2.938926 4.045085
L 1.816356 0.59017
L 4.755283 -1.545085
L 1.12257 -1.545085
z
" style="stroke: #0b63ce; stroke-linejoin: bevel"/>
     </defs>
     <g>
      <use xlink:href="#ma9cce7b242" x="676.050753" y="90.960578" style="fill: #0b63ce; stroke: #0b63ce; stroke-linejoin: bevel"/>
     </g>
    </g>
    <g id="text_23">
     <text style="font-size: 8.3px; font-family: 'DejaVu Sans', 'Bitstream Vera Sans', 'Computer Modern Sans Serif', 'Lucida Grande', 'Verdana', 'Geneva', 'Lucid', 'Arial', 'Helvetica', 'Avant Garde', sans-serif; text-anchor: start" x="690.990753" y="93.865578" transform="rotate(-0 690.990753 93.865578)">TreeDB candidate (u8 / u8+rerank)</text>
    </g>
    <g id="PathCollection_2">
     <defs>
      <path id="m1a3dee28bd" d="M -0 5.385165
L 5.385165 0
L 0 -5.385165
L -5.385165 -0
z
" style="stroke: #0b63ce; stroke-width: 2"/>
     </defs>
     <g>
      <use xlink:href="#m1a3dee28bd" x="676.050753" y="103.869672" style="fill: #ffffff; stroke: #0b63ce; stroke-width: 2"/>
     </g>
    </g>
    <g id="text_24">
     <text style="font-size: 8.3px; font-family: 'DejaVu Sans', 'Bitstream Vera Sans', 'Computer Modern Sans Serif', 'Lucida Grande', 'Verdana', 'Geneva', 'Lucid', 'Arial', 'Helvetica', 'Avant Garde', sans-serif; text-anchor: start" x="690.990753" y="106.048422" transform="rotate(-0 690.990753 106.048422)">TreeDB candidate FP32 (single point)</text>
    </g>
   </g>
   <g id="line2d_54">
    <path d="M 78.538056 92.32832
L 468.645241 96.776959
L 745.687463 151.530656
" clip-path="url(#p95873efa21)" style="fill: none; stroke-dasharray: 10.36,4.48; stroke-dashoffset: 0; stroke: #f07c32; stroke-width: 2.8"/>
    <g clip-path="url(#p95873efa21)">
     <use xlink:href="#m83c2f74aef" x="78.538056" y="92.32832" style="fill: #f07c32; stroke: #f07c32; stroke-linejoin: bevel"/>
     <use xlink:href="#m83c2f74aef" x="468.645241" y="96.776959" style="fill: #f07c32; stroke: #f07c32; stroke-linejoin: bevel"/>
     <use xlink:href="#m83c2f74aef" x="745.687463" y="151.530656" style="fill: #f07c32; stroke: #f07c32; stroke-linejoin: bevel"/>
    </g>
   </g>
   <g id="line2d_55">
    <path d="M 78.538056 58.024852
L 468.645241 69.575503
L 745.687463 131.074593
" clip-path="url(#p95873efa21)" style="fill: none; stroke: #0b63ce; stroke-width: 2.8; stroke-linecap: square"/>
    <g clip-path="url(#p95873efa21)">
     <use xlink:href="#ma9cce7b242" x="78.538056" y="58.024852" style="fill: #0b63ce; stroke: #0b63ce; stroke-linejoin: bevel"/>
     <use xlink:href="#ma9cce7b242" x="468.645241" y="69.575503" style="fill: #0b63ce; stroke: #0b63ce; stroke-linejoin: bevel"/>
     <use xlink:href="#ma9cce7b242" x="745.687463" y="131.074593" style="fill: #0b63ce; stroke: #0b63ce; stroke-linejoin: bevel"/>
    </g>
   </g>
   <g id="PathCollection_3">
    <g clip-path="url(#p95873efa21)">
     <use xlink:href="#meac61facf2" x="497.076782" y="149.568566" style="fill: #ffffff; stroke: #f07c32; stroke-width: 2"/>
    </g>
   </g>
   <g id="PathCollection_4">
    <g clip-path="url(#p95873efa21)">
     <use xlink:href="#m1a3dee28bd" x="497.076782" y="124.075232" style="fill: #ffffff; stroke: #0b63ce; stroke-width: 2"/>
    </g>
   </g>
  </g>
  <g id="text_25">
   <text style="font-size: 8.5px; font-family: 'DejaVu Sans', 'Bitstream Vera Sans', 'Computer Modern Sans Serif', 'Lucida Grande', 'Verdana', 'Geneva', 'Lucid', 'Arial', 'Helvetica', 'Avant Garde', sans-serif; text-anchor: start; fill: #5b6472" x="48.98044" y="496.7895" transform="rotate(-0 48.98044 496.7895)">TreeDB c6i.8xlarge production run (2026-08-20). Directional overlay: public systems were not rerun on these hosts; all public 1M curve points shown.</text>
  </g>
 </g>
 <defs>
  <clipPath id="p95873efa21">
   <rect x="45.478125" y="31.3575" width="806.662315" height="403.6"/>
  </clipPath>
 </defs>
</svg>
